# xmcd
#
# Track frame offsets:
#	150
#	14287
#	27220
#	44100
#	60320
#	71592
#	81165
#	94450
#	108465
#	121222
#	139900
#	156575
#	175292
#	187467
#	199575
#	213275
#	225455
#	237932
#	251485
#	272287
#
# Disc length: 3859 seconds
#
# Revision: 2
# Processed by: cddbd v1.5.2PL0 Copyright (c) Steve Scherf et al.
# Submitted via: audiograbber 1.83.01
#
DISCID=200f1114
DTITLE=Kenny Rogers and Anne Murray - Christmas Wishes
DYEAR=1981
DGENRE=Easy Listening
TTITLE0=Anne Murray - Winter Wonderland
TTITLE1=Anne Murray - Silver Bells
TTITLE2=Anne Murray - The Little Drummer Boy
TTITLE3=Anne Murray - I'll Be Home For Christmas
TTITLE4=Anne Murray - Christmas Wishes
TTITLE5=Anne Murray - Joy To The World
TTITLE6=Anne Murray - Away In A Manger
TTITLE7=Anne Murray - O Holy Night
TTITLE8=Anne Murray - Go Tell It On The Mountain
TTITLE9=Anne Murray - Silent Night
TTITLE10=Kenny Rogers - Christmas Everyday
TTITLE11=Kenny Rogers - Kentucky Homemade Christmas
TTITLE12=Kenny Rogers - Carol Of The Bells
TTITLE13=Kenny Rogers - Kids
TTITLE14=Kenny Rogers - Sweet Little Jesus Boy
TTITLE15=Kenny Rogers - Christmas Is My Favourite Time Of The Year
TTITLE16=Kenny Rogers - White Christmas
TTITLE17=Kenny Rogers - My Favourite Things
TTITLE18=Kenny Rogers - O Holy Night
TTITLE19=Kenny Rogers - When A Child Is Born
EXTD=
EXTT0=
EXTT1=
EXTT2=
EXTT3=
EXTT4=
EXTT5=
EXTT6=
EXTT7=
EXTT8=
EXTT9=
EXTT10=
EXTT11=
EXTT12=
EXTT13=
EXTT14=
EXTT15=
EXTT16=
EXTT17=
EXTT18=
EXTT19=
PLAYORDER=
